<svg width="320" height="172" viewBox="0 0 320 172" fill="none" xmlns="http://www.w3.org/2000/svg">
<rect width="320" height="172" fill="#F1F1F1"/>
<path d="M173.458 27.5976C174.146 27.5976 174.812 27.3326 175.301 26.8688C175.789 26.405 176.078 25.7424 176.1 25.0798C176.1 24.3951 175.812 23.7326 175.323 23.2467C174.835 22.7608 174.168 22.4736 173.48 22.4736C172.792 22.4957 172.148 22.7608 171.66 23.2688C171.171 23.7546 170.905 24.4172 170.927 25.0798C170.927 25.7424 171.193 26.3829 171.682 26.8688C172.148 27.3105 172.792 27.5756 173.458 27.5976ZM191.354 30.0271H197.704V30.5351C197.349 30.6014 197.015 30.7118 196.705 30.8885C196.127 31.1535 194.973 32.4566 194.062 34.6431C192.553 38.4199 190.976 42.9033 189.311 48.0273L188.689 49.9709C188.423 50.8544 188.179 51.4286 188.068 51.7599C187.957 52.1133 187.801 52.6433 187.535 53.2838C187.379 53.7697 187.18 54.2556 186.935 54.6974C186.624 55.2716 186.047 56.4422 185.581 56.7955C184.848 57.414 183.76 58.0986 182.406 57.9882C179.764 57.9882 177.788 56.0446 177.765 53.7476C177.765 52.1795 178.765 51.1415 180.274 51.1415C181.362 51.1415 182.317 51.7157 182.317 52.9305C182.317 53.8139 181.429 54.7194 181.429 55.1833C181.429 56.3759 182.117 56.9281 183.472 56.9281C184.56 56.9281 185.448 56.2434 186.114 54.874C187.002 53.3059 187.091 51.5832 186.336 49.6617L180.763 35.0848C179.475 31.7278 178.52 30.6234 177.321 30.4909V29.9829H186.114V30.4909C185.07 30.6014 184.537 31.2198 184.537 32.3241C184.537 33.1192 184.848 34.356 185.425 35.9241L186.469 38.7511C187.668 41.8211 188.645 44.4935 189.133 46.1721C190.266 42.6825 191.309 39.6346 192.308 36.9622C193.041 34.9744 193.396 33.5609 193.396 32.7216C193.396 31.2198 192.575 30.5351 191.354 30.5351V30.0271ZM130.229 48.6457C129.096 48.447 128.141 47.4531 128.141 45.3549V20L121.747 21.3693V21.8994C122.835 21.789 123.923 22.7387 123.923 24.7706V45.3549C123.923 47.3427 122.835 48.4911 121.747 48.6457C121.636 48.6678 121.547 48.6678 121.436 48.6899C120.881 48.7341 120.326 48.6237 119.815 48.4028C118.949 48.0273 118.239 47.3647 117.639 46.393L114.686 41.7328C114.065 40.7389 113.132 39.988 112.044 39.5683C110.956 39.1487 109.757 39.0824 108.625 39.3916L111.955 35.7474C114.464 32.9867 116.796 31.2419 118.994 30.513V30.005H111.667V30.513C113.554 31.2419 113.443 32.8541 111.267 35.372L106.604 40.761V20L100.21 21.3693V21.8994C101.298 21.8994 102.386 22.9595 102.386 24.8369V45.3328C102.386 47.6077 101.32 48.4911 100.21 48.6457V49.1537H108.692V48.6457C107.293 48.447 106.604 47.3868 106.604 45.3549V41.5782L108.425 39.5904L112.821 46.7463C113.865 48.4691 114.842 49.1537 116.374 49.1537H131.117V48.7562C131.139 48.7562 130.717 48.7341 130.229 48.6457ZM147.813 46.2384V37.6689C147.725 32.0811 145.349 29.5191 139.909 29.5191C138.177 29.497 136.49 30.0713 135.113 31.1314C133.67 32.2136 132.982 33.4284 132.982 34.8419C132.982 36.2112 133.759 37.2493 135.024 37.2493C136.379 37.2493 137.356 36.4763 137.356 35.4161C137.356 34.621 136.823 33.4946 136.823 32.7437C136.823 31.3744 137.866 30.1817 139.687 30.1817C142.018 30.1817 143.684 31.9044 143.684 35.7253V38.0223L141.752 38.4861C140.753 38.6849 139.887 38.8837 139.243 39.0604C138.577 39.2591 137.733 39.5242 136.734 39.8996C134.714 40.6726 133.648 41.4015 132.715 42.7708C132.249 43.4334 132.027 44.2285 132.027 45.0236C132.027 48.204 134.27 49.6617 137.4 49.6617C139.887 49.6617 142.507 48.3586 143.706 45.9071C143.728 46.6801 143.906 47.431 144.261 48.1378C145.571 50.766 149.923 49.22 149.923 49.22V48.712C147.969 48.9991 147.813 46.7684 147.813 46.2384ZM143.684 43.588C143.684 44.8469 143.217 45.885 142.285 46.6138C141.397 47.3427 140.464 47.7181 139.487 47.7181C137.6 47.7181 136.357 46.5034 136.357 44.2285C136.357 43.1684 136.956 42.1745 137.445 41.6003C137.844 41.2027 138.288 40.8714 138.799 40.6506C139.465 40.2972 139.776 40.1205 140.242 39.9217L142.018 39.2812C142.907 38.9278 143.439 38.7511 143.684 38.6407V43.588ZM229.21 30.0271H214.156V20H229.21L226.057 25.0136L229.21 30.0271ZM198.592 46.7022C196.727 44.8028 195.683 42.2408 195.728 39.5683C195.705 38.2653 195.95 36.9622 196.438 35.7474C196.927 34.5327 197.659 33.4284 198.592 32.4787C200.501 30.4909 202.81 29.497 205.541 29.497C208.206 29.497 210.537 30.4909 212.447 32.4787C213.379 33.4063 214.134 34.5106 214.623 35.7253C215.133 36.9401 215.377 38.2432 215.355 39.5683C215.377 40.8935 215.133 42.1966 214.623 43.4113C214.112 44.6261 213.379 45.7525 212.447 46.6801C210.537 48.6237 208.228 49.6396 205.541 49.6396C202.833 49.6617 200.501 48.6678 198.592 46.7022ZM209.027 32.81C208.272 31.3302 207.251 30.4688 206.074 30.2259C203.676 29.74 201.567 32.1916 200.768 36.0566C200.435 37.8014 200.346 39.5683 200.524 41.3131C200.701 43.08 201.19 44.7807 201.989 46.3709C202.766 47.8506 203.765 48.712 204.942 48.955C207.34 49.4408 209.516 46.9009 210.315 42.9917C210.981 39.7229 210.648 35.7474 209.027 32.81Z" fill="black"/>
<path d="M175.7 45.3539V30.0261H162.068V30.4899C163.888 30.7549 164.754 32.1243 163.933 34.3108C159.67 45.7514 159.936 45.2434 159.67 46.149C159.403 45.2655 158.782 43.1011 157.782 40.3845C156.783 37.6679 156.117 35.8789 155.851 35.0617C154.807 31.8813 155.162 30.7108 156.85 30.512V30.004H148.013V30.512C149.323 30.777 150.5 32.2789 151.455 34.9513L152.809 38.4409C154.297 42.1956 156.051 47.3858 156.628 49.1527H159.559C160.513 46.4361 164.288 35.5697 164.799 34.4654C165.354 33.2065 165.975 32.2568 166.664 31.5942C166.997 31.2408 167.396 30.9537 167.863 30.777C168.307 30.6003 168.795 30.4899 169.284 30.512C169.284 30.512 171.415 30.512 171.415 32.5439V45.376C171.415 47.5183 170.372 48.5122 169.284 48.6668V49.1748H177.721V48.6668C176.633 48.4901 175.7 47.4962 175.7 45.3539Z" fill="black"/>
<path d="M244.738 81.2551C244.738 80.634 244.298 80.22 243.573 80.22L242.15 80.2458L242.176 83.403H242.952V82.3161H243.418L244.091 83.403H244.996L244.194 82.1867C244.36 82.0946 244.498 81.9595 244.594 81.7955C244.689 81.6316 244.739 81.4449 244.738 81.2551ZM243.418 81.6691H242.926V80.8669H243.495C243.598 80.8557 243.701 80.8844 243.783 80.947C243.865 81.0097 243.919 81.1015 243.935 81.2033V81.2292C243.933 81.2932 243.918 81.356 243.89 81.4137C243.862 81.4713 243.823 81.5226 243.774 81.564C243.725 81.6055 243.668 81.6362 243.607 81.6543C243.546 81.6724 243.481 81.6775 243.418 81.6691ZM128.623 95.8503C127.303 95.8503 126.397 94.8152 126.397 93.2884V86.3272H131.832V81.4104H126.41L126.359 75.7689H120.355L120.407 94.5564C120.407 98.3604 122.943 100.948 126.669 100.948C128.636 100.948 130.499 100.664 131.974 99.9908V95.2033C130.927 95.6894 129.776 95.9116 128.623 95.8503ZM142.959 81.0998C137.37 81.0998 133.074 85.4473 133.074 91.2181C133.074 96.9372 137.37 100.922 143.296 100.922C146.634 100.922 149.765 99.732 151.68 97.2736L147.074 95.1775C146.142 96.0314 144.719 96.3678 143.451 96.3678C141.381 96.3678 139.311 95.3068 139.026 93.1331H152.767C152.974 92.3564 153.078 91.556 153.078 90.7523C153.078 84.8262 148.756 81.0998 142.972 81.0998H142.959ZM139.026 89.329C139.207 86.7412 141.07 85.5508 143.115 85.5508C145.418 85.5508 147.152 86.8447 147.152 89.0702V89.329H139.026ZM114.649 95.8503C113.329 95.8503 112.423 94.8152 112.423 93.2884V86.3272H117.858V81.4104H112.436L112.384 75.7689H106.381L106.433 94.5564C106.433 98.3604 108.969 100.948 112.695 100.948C114.662 100.948 116.525 100.664 118 99.9908V95.2033C116.953 95.6918 115.802 95.914 114.649 95.8503ZM93.5582 81.0998C88.4085 81.0998 83 84.4898 83 91.3216C83 97.0148 86.8299 101 91.6691 101C94.4381 101 96.5342 99.8873 97.9057 97.9205L98.0869 100.664H103.896V91.5545C103.896 84.6192 98.7856 81.0998 93.5582 81.0998ZM93.5582 95.7468C90.9445 95.7468 89.0555 93.8059 89.0555 91.0629C89.0555 88.3198 90.9187 86.3789 93.5582 86.3789C95.9908 86.3789 98.0092 88.5009 98.0092 91.0629C98.0092 93.6248 95.9908 95.7468 93.5582 95.7468ZM243.288 78.7967C241.399 78.8225 240.183 80.0388 240.209 81.8503C240.235 83.6617 241.477 84.8521 243.366 84.8263C245.203 84.8004 246.445 83.5841 246.42 81.7468C246.394 79.9094 245.152 78.7708 243.288 78.7967ZM243.366 84.3087C241.891 84.3346 240.882 83.3512 240.882 81.8503C240.882 80.3494 241.839 79.3401 243.314 79.3142C244.789 79.2884 245.773 80.2717 245.799 81.7985C245.799 83.2736 244.815 84.2828 243.379 84.3087H243.366ZM213.943 81.4362L209.75 93.5989L205.506 81.4362H198.985L206.8 100.638H212.649L220.464 81.4362H213.943ZM229.495 81.0998C223.906 81.0998 219.61 85.4473 219.61 91.2181C219.61 96.9372 223.906 100.922 229.832 100.922C233.17 100.922 236.301 99.732 238.216 97.2736L233.61 95.1775C232.678 96.0314 231.255 96.3678 229.987 96.3678C227.917 96.3678 225.847 95.3068 225.562 93.1331H239.303C239.51 92.3564 239.614 91.556 239.614 90.7523C239.614 84.8262 235.292 81.0998 229.495 81.0998ZM233.688 89.329H225.562C225.743 86.7412 227.606 85.5508 229.651 85.5508C231.954 85.5508 233.688 86.8447 233.688 89.0702V89.329ZM194.353 73C192.231 73 190.627 74.4233 190.627 76.4159C190.627 78.4085 192.231 79.8836 194.353 79.8836C196.475 79.8836 198.079 78.4344 198.079 76.4159C198.079 74.3974 196.501 73 194.353 73ZM167.104 81.0739C165.89 81.0543 164.692 81.3491 163.627 81.9295C162.561 82.51 161.664 83.3564 161.022 84.3863L160.815 81.4362H155.018V100.638H161.022V90.5712C161.152 88.1645 163.092 86.3272 165.214 86.3272C167.595 86.3272 168.682 88.1128 168.682 90.3641V100.612H174.66V89.4325C174.66 84.5675 171.697 81.0739 167.104 81.0739ZM185.425 95.8503C184.105 95.8503 183.2 94.8152 183.2 93.2884V86.3272H188.634V81.4104H183.2L183.148 75.7689H177.144L177.196 94.5564C177.196 98.3604 179.732 100.948 183.458 100.948C185.425 100.948 187.288 100.664 188.763 99.9908V95.2033C187.721 95.6897 186.574 95.9119 185.425 95.8503ZM191.325 81.4362V100.638H197.381V81.4362C196.483 82.0311 195.43 82.3484 194.353 82.3484C193.276 82.3484 192.223 82.0311 191.325 81.4362Z" fill="#1A1E22"/>
<g clip-path="url(#clip0_2062_44129)">
<path d="M116.21 149.603C116.21 136.591 116.21 130.085 120.29 126.042C124.37 122 130.937 122 144.071 122H197.584C205.935 122 212.704 128.707 212.704 136.98C212.704 145.253 205.935 151.959 197.584 151.959H116.21V149.603Z" fill="#5724E9"/>
<path d="M124.591 131.197H129.206C131.947 131.197 133.594 132.473 133.594 135.043C133.594 137.399 132.256 138.791 129.451 138.791H127.266V141.829H124.591V131.197ZM129.338 137.014C130.462 137.014 131.082 136.416 131.082 135.172C131.082 133.96 130.402 133.281 129.125 133.281H127.266V137.014H129.338Z" fill="white"/>
<path d="M133.887 137.854C133.887 135.252 135.617 133.717 138.275 133.717C140.933 133.717 142.661 135.252 142.661 137.854C142.661 140.435 140.933 141.958 138.275 141.958C135.617 141.958 133.887 140.439 133.887 137.854ZM140.183 137.854C140.183 136.432 139.481 135.592 138.275 135.592C137.069 135.592 136.366 136.432 136.366 137.854C136.366 139.259 137.067 140.084 138.275 140.084C139.482 140.084 140.183 139.259 140.183 137.854Z" fill="white"/>
<path d="M143.264 139.147H145.483C145.483 139.89 145.858 140.375 147.276 140.375C148.565 140.375 149.021 140.004 149.021 139.421C149.021 139.131 148.875 138.905 148.455 138.807C147.835 138.694 147.209 138.619 146.579 138.583C145.422 138.485 144.525 138.308 144.036 137.968C143.792 137.785 143.595 137.547 143.462 137.274C143.329 137.001 143.263 136.7 143.269 136.397C143.269 134.668 145.063 133.714 147.297 133.714C149.94 133.714 151.148 134.716 151.148 136.574H148.957C148.94 135.734 148.549 135.298 147.326 135.298C146.216 135.298 145.727 135.67 145.727 136.219C145.727 136.555 145.858 136.817 146.314 136.93C146.722 137.027 147.439 137.092 148.304 137.173C149.299 137.269 150.003 137.367 150.603 137.706C150.88 137.868 151.109 138.1 151.266 138.378C151.424 138.656 151.505 138.97 151.5 139.289C151.5 140.972 150.048 141.955 147.293 141.955C144.455 141.958 143.264 140.767 143.264 139.147Z" fill="white"/>
<path d="M152.949 139.084V135.754H151.755V133.847H152.723C153.097 133.847 153.229 133.637 153.278 133.152L153.391 132.038H155.429V133.847H158.006V135.754H155.425V138.953C155.425 139.777 155.816 140.036 156.794 140.036C157.172 140.034 157.549 139.996 157.92 139.924V141.777C157.405 141.887 156.88 141.947 156.354 141.954C153.843 141.958 152.949 140.86 152.949 139.084Z" fill="white"/>
<path d="M158.643 139.147H160.86C160.86 139.89 161.235 140.375 162.654 140.375C163.942 140.375 164.399 140.004 164.399 139.421C164.399 139.131 164.252 138.905 163.833 138.807C163.213 138.694 162.587 138.619 161.958 138.583C160.799 138.485 159.902 138.308 159.413 137.968C159.169 137.785 158.973 137.547 158.84 137.274C158.706 137.001 158.641 136.7 158.647 136.397C158.647 134.668 160.44 133.714 162.674 133.714C165.317 133.714 166.525 134.716 166.525 136.574H164.339C164.323 135.734 163.932 135.298 162.708 135.298C161.6 135.298 161.11 135.67 161.11 136.219C161.11 136.555 161.241 136.817 161.697 136.93C162.105 137.027 162.823 137.092 163.687 137.173C164.681 137.269 165.386 137.367 165.986 137.706C166.263 137.869 166.491 138.101 166.648 138.38C166.805 138.659 166.885 138.973 166.88 139.292C166.88 140.975 165.429 141.958 162.672 141.958C159.833 141.958 158.643 140.767 158.643 139.147Z" fill="white"/>
<path d="M167.285 137.854C167.285 135.252 168.997 133.717 171.476 133.717C173.84 133.717 175.39 135.027 175.39 137.239H173.204C173.188 136.206 172.568 135.592 171.557 135.592C170.4 135.592 169.763 136.383 169.763 137.836C169.763 139.242 170.415 140.081 171.509 140.081C172.568 140.081 173.207 139.482 173.221 138.465H175.406C175.406 140.758 173.759 141.954 171.378 141.954C168.966 141.958 167.285 140.439 167.285 137.854Z" fill="white"/>
<path d="M176.377 133.846H178.856L178.759 136.125H178.792C179.132 134.606 179.998 133.717 181.58 133.717C183.227 133.717 184.185 134.768 184.185 136.836C184.185 137.284 184.136 137.999 184.103 138.419H181.857C181.889 138.032 181.906 137.628 181.906 137.385C181.906 136.222 181.433 135.754 180.65 135.754C179.59 135.754 178.856 136.61 178.856 138.387V141.829H176.377V133.846Z" fill="white"/>
<path d="M187.586 133.848H185.107V141.829H187.586V133.848Z" fill="white"/>
<path d="M188.851 133.846H191.33L191.282 135.479H191.298C191.608 134.38 192.635 133.717 194.021 133.717C196.272 133.717 197.739 135.301 197.739 137.66C197.739 140.241 196.267 141.958 194.002 141.958C192.529 141.958 191.624 141.36 191.261 140.387H191.245C191.278 140.921 191.327 141.712 191.327 142.003V145.03H188.851V133.846ZM195.277 137.757C195.277 136.464 194.526 135.592 193.402 135.592C192.156 135.592 191.33 136.481 191.33 137.822V138.178C191.33 139.324 192.161 140.085 193.418 140.085C194.525 140.084 195.276 139.147 195.276 137.757H195.277Z" fill="white"/>
<path d="M199.257 139.084V135.754H198.067V133.847H199.028C199.403 133.847 199.534 133.637 199.583 133.152L199.697 132.038H201.735V133.847H204.312V135.754H201.735V138.953C201.735 139.777 202.126 140.036 203.104 140.036C203.482 140.034 203.859 139.996 204.23 139.924V141.777C203.715 141.887 203.191 141.947 202.664 141.954C200.154 141.958 199.257 140.86 199.257 139.084Z" fill="white"/>
<path d="M187.832 132.005C187.832 132.224 187.776 133.024 186.473 133.024H185.114V132.002C185.114 131.389 185.614 130.973 186.473 130.973C187.224 130.976 187.832 131.28 187.832 132.005Z" fill="white"/>
</g>
<defs>
<clipPath id="clip0_2062_44129">
<rect width="97" height="30" fill="white" transform="translate(116.21 122)"/>
</clipPath>
</defs>
</svg>
